<svg width="120" height="40" viewBox="0 0 120 40" fill="none" xmlns="http://www.w3.org/2000/svg"><path d="M36.0058 1.99995H1.00004V37.0057H36.0058V1.99995Z" fill="#D6001C"/><path d="M29.7163 28.9395H7.29184V30.7157H29.7163V28.9395Z" fill="white"/><path d="M9.06803 10.0669H17.1349V8.29075H7.29184V19.0219H9.06803V10.0669Z" fill="white"/><path d="M17.1343 26.2745V17.2455H11.8057V19.0217H15.3581V26.2745H17.1343Z" fill="white"/><path d="M29.7135 17.2455H24.311V19.0957H27.9373V26.2745H29.7135V17.2455Z" fill="white"/><path d="M21.6479 10.0669H29.7148V8.29075H19.8717V26.2747H21.6479V10.0669Z" fill="white"/><path d="M60.3541 5.70068L58.5779 3.85048L56.7277 5.70068L58.5779 7.55088L60.3541 5.70068Z" fill="#75787B"/><path d="M58.2071 16.8765C61.5375 16.8765 65.0898 15.6183 65.0898 12.88V4.88718L61.4635 5.84928L62.4256 12.658C61.2414 12.9541 59.9093 13.1021 58.7252 13.1021C57.245 13.1021 56.6529 12.806 56.6529 11.6959C56.6529 11.2519 56.6529 10.7338 56.875 8.51357H53.7666C53.6186 10.7338 53.5446 11.5479 53.5446 12.14C53.6186 15.3223 55.0988 16.8765 58.2071 16.8765Z" fill="#75787B"/><path d="M69.9758 15.1734V3.03605L66.4234 3.4801L67.0155 15.1734H69.9758Z" fill="#75787B"/><path d="M68.495 16.4311V19.9095C68.9391 19.9835 69.3831 20.0575 69.8272 20.0575C73.0835 20.0575 75.5258 17.3932 75.5258 13.7668C75.5258 11.7686 75.4518 10.5844 75.3038 8.21619L71.6774 8.80825L72.8615 14.2848C72.0474 15.987 70.8633 16.3571 68.495 16.4311Z" fill="#75787B"/><path d="M116.526 10.9546V11.5466H114.158V8.51232C116.6 9.32641 116.6 9.32641 116.526 10.9546ZM111.642 11.6207C110.384 11.6207 109.569 10.9546 109.569 9.84446C109.569 8.95637 110.31 8.14228 111.642 8.14228V11.6207ZM99.1343 15.247C98.5423 15.247 98.0242 14.951 97.1361 13.9889L98.7643 12.5088L100.392 13.9889C100.096 14.877 99.6524 15.247 99.1343 15.247ZM110.828 3.92382L110.68 5.40398C108.533 5.84803 106.979 7.77224 106.979 9.99248C106.979 10.9546 107.275 11.9167 107.793 12.6568H106.905H105.943H105.499C103.575 12.6568 103.575 12.6568 101.355 10.6586L98.5423 8.06827C94.6938 12.6568 94.6938 12.6568 92.8436 12.6568H92.2516H89.8833V10.6586C89.8833 7.92025 89.6613 7.25418 87.441 6.5141L86.1089 5.99605L90.1793 5.552L90.4754 1.99961L83.6666 3.40576L82.7045 8.14228L86.0349 9.2524C87.071 9.62244 87.071 9.62244 87.071 11.1766V12.2867C85.8129 12.5088 84.4807 12.6568 82.9266 12.6568H82.7045H82.1125H80.0402V3.03572L76.5619 3.55378L76.7839 11.6947C76.8579 14.655 78.4121 16.1351 81.5204 16.1351H82.1125H82.7045H82.9266C85.0728 16.1351 87.145 15.9871 88.4772 15.025C89.2912 15.6911 90.0313 16.1351 91.5855 16.1351H92.2516H92.9176C93.5837 16.1351 94.3978 16.1351 95.2119 15.3211C95.7299 17.9113 97.2101 18.9474 98.8383 18.9474C100.614 18.9474 101.947 17.3193 102.539 15.3951C103.649 16.1351 104.463 16.1351 105.721 16.1351H105.943H106.905C109.273 16.1351 110.384 15.8391 111.716 14.655H118.746L118.968 10.5845C119.339 6.44009 116.452 5.70001 110.828 3.92382Z" fill="#75787B"/><path d="M71.0852 23.9066L69.679 22.5744L67.9768 24.0546L69.679 25.6088L71.0852 24.2766L72.5653 25.6088L74.2675 24.0546L72.5653 22.5744L71.0852 23.9066Z" fill="#75787B"/><path d="M94.25 36.7834L95.8781 38.3376L97.3583 37.0055L98.7645 38.3376L100.467 36.7834L98.7645 35.3033L97.3583 36.5614L95.8781 35.2293L94.25 36.7834Z" fill="#75787B"/><path d="M60.2048 29.6785L62.4251 29.3085L63.0911 32.1948C60.7969 32.6388 60.2788 31.7507 60.2048 29.6785ZM116.007 30.8626H113.639V26.6442H110.382V30.8626H107.348V26.6442H104.092V30.8626H101.871H100.391H98.911V26.4222H95.8027V30.8626H93.6564H92.8424H91.9543V26.2001L88.4019 26.7182L88.9199 30.8626H86.5517V26.6442H83.2953V30.8626H80.261V26.6442H77.0046V30.8626H74.7844H73.9703H72.4902V26.4222H69.3818V30.8626H67.2356H66.6435C65.4594 30.8626 65.3854 30.8627 65.0153 28.5684L64.4233 25.4601L58.8727 26.2001C54.9502 26.7182 53.4701 28.3464 53.4701 32.4908V37.5974L57.0965 37.1533L56.3564 30.1966L57.3185 30.0486C57.6885 35.2291 59.3907 36.1172 60.6489 36.1172C61.907 36.1172 63.1651 35.5252 64.2753 33.675C64.8673 34.267 65.4594 34.415 66.1995 34.415H66.2735H66.8655H67.2356C68.8638 34.341 70.1219 33.971 70.936 33.3049C71.7501 33.971 72.4902 34.415 73.9703 34.489H74.1183H74.7844C76.4126 34.489 77.6707 34.119 78.5588 33.675C79.5209 34.193 80.631 34.6371 81.7412 34.6371C82.9253 34.6371 83.9614 34.267 84.8495 33.675C85.6636 34.341 86.6997 34.7111 87.7358 34.7111C88.7719 34.7111 89.734 34.341 90.4741 33.6009C91.1402 34.193 91.7322 34.489 92.8424 34.489H93.2124H93.5824C95.2106 34.415 96.4688 34.045 97.2828 33.3789C98.0969 34.045 98.837 34.489 100.317 34.5631H100.465H101.797C103.426 34.5631 104.684 34.193 105.572 33.749C106.534 34.267 107.644 34.7111 108.754 34.7111C109.938 34.7111 110.974 34.341 111.862 33.749C112.825 34.341 114.305 34.7111 115.193 34.7111C117.191 34.7111 118.745 33.3789 118.745 31.0107V25.5341L115.193 26.0521L116.007 30.8626Z" fill="#75787B"/></svg>